<?xml version="1.0" standalone="no"?>
<!DOCTYPE svg PUBLIC "-//W3C//DTD SVG 20010904//EN"
 "http://www.w3.org/TR/2001/REC-SVG-20010904/DTD/svg10.dtd">
<svg version="1.0" xmlns="http://www.w3.org/2000/svg"
 width="512.000000pt" height="512.000000pt" viewBox="0 0 512.000000 512.000000"
 preserveAspectRatio="xMidYMid meet">
<metadata>
Created by potrace 1.11, written by Peter Selinger 2001-2013
</metadata>
<g transform="translate(0.000000,512.000000) scale(0.100000,-0.100000)"
fill="#000000" stroke="none">
<path d="M12 3518 c8 -13 110 -189 228 -393 117 -203 220 -377 229 -385 15
-13 89 -15 546 -14 l528 0 125 215 c68 117 133 230 144 249 11 19 60 103 109
187 49 84 89 155 89 158 0 3 -453 5 -1006 5 l-1006 0 14 -22z"/>
<path d="M2164 3353 c-60 -103 -116 -201 -125 -218 -21 -39 -393 -681 -417
-720 -35 -56 -482 -834 -482 -839 0 -3 177 -6 394 -6 l394 0 20 33 c48 81 406
699 480 827 11 19 52 91 92 160 40 69 81 141 92 160 22 38 107 184 123 212 6
9 35 61 66 115 32 54 81 139 109 188 29 50 64 110 78 134 14 25 38 67 53 93
l28 48 -398 0 -398 0 -109 -187z"/>
<path d="M3242 3423 c-38 -65 -104 -179 -147 -253 -129 -223 -217 -375 -463
-800 -129 -223 -243 -420 -253 -438 -46 -79 -100 -174 -151 -262 l-56 -95 395
-3 c449 -3 397 -13 454 93 17 33 38 67 45 76 8 8 14 18 14 21 0 3 39 72 86
154 48 82 96 165 107 184 91 160 113 198 127 220 10 14 34 57 55 95 21 39 44
77 51 86 8 8 14 18 14 21 0 6 119 213 451 785 71 122 129 225 129 228 0 3
-178 5 -395 5 l-394 0 -69 -117z"/>
<path d="M4050 3064 c-151 -262 -287 -497 -301 -523 -15 -26 -37 -65 -51 -87
-13 -21 -28 -46 -32 -54 -4 -8 -12 -24 -19 -35 -7 -11 -40 -70 -75 -130 -35
-61 -67 -117 -72 -125 -33 -54 -120 -203 -120 -206 0 -2 -22 -41 -49 -86 -46
-78 -61 -104 -119 -205 l-24 -43 399 0 398 1 249 432 c137 238 330 572 429
742 212 365 308 531 390 675 33 58 61 108 64 113 2 4 -175 7 -394 7 l-398 0
-275 -476z"/>
<path d="M616 2476 c4 -11 14 -32 24 -46 16 -24 185 -314 238 -410 14 -25 32
-56 41 -70 28 -44 40 -64 62 -108 13 -23 26 -39 30 -35 7 8 363 623 387 670
l12 21 -400 0 -401 0 7 -22z"/>
</g>
</svg>
